<svg width="38" height="35" viewBox="0 0 38 35" fill="none" xmlns="http://www.w3.org/2000/svg">
<rect x="0.5" y="0.5" width="37" height="34" rx="1.5" fill="white" stroke="black"/>
<path d="M27.6633 23.771C27.6633 23.771 26.5047 24.909 26.2207 25.2426C25.7582 25.7362 25.2132 25.9693 24.4988 25.9693C24.4301 25.9693 24.3568 25.9693 24.2881 25.9647C22.9279 25.8779 21.6639 25.3477 20.7159 24.8953C18.1238 23.643 15.8477 21.8651 13.9563 19.6119C12.3946 17.7335 11.3505 15.9968 10.6589 14.1321C10.233 12.9941 10.0773 12.1074 10.146 11.2711C10.1918 10.7363 10.3979 10.293 10.778 9.91368L12.3397 8.35519C12.5641 8.14496 12.8022 8.0307 13.0358 8.0307C13.3243 8.0307 13.5579 8.20437 13.7044 8.35062C13.709 8.35519 13.7136 8.35977 13.7182 8.36434C13.9975 8.62485 14.2631 8.8945 14.5425 9.18243C14.6845 9.32868 14.831 9.47493 14.9776 9.62575L16.2278 10.8735C16.7133 11.3579 16.7133 11.8058 16.2278 12.2903C16.095 12.4228 15.9668 12.5553 15.834 12.6833C15.4493 13.0764 15.7515 12.7748 15.3531 13.1313C15.3439 13.1404 15.3347 13.145 15.3302 13.1541C14.9363 13.5472 15.0096 13.9311 15.092 14.1916C15.0966 14.2053 15.1012 14.219 15.1058 14.2327C15.4309 15.0188 15.8889 15.7592 16.585 16.6413L16.5896 16.6459C17.8536 18.1998 19.1863 19.4109 20.6563 20.3387C20.8441 20.4575 21.0365 20.5535 21.2196 20.6449C21.3845 20.7272 21.5402 20.8049 21.673 20.8871C21.6914 20.8963 21.7097 20.91 21.728 20.9191C21.8837 20.9968 22.0303 21.0334 22.1814 21.0334C22.5615 21.0334 22.7996 20.7957 22.8775 20.718L23.7752 19.8222C23.9309 19.6668 24.1782 19.4794 24.4667 19.4794C24.7507 19.4794 24.9842 19.6576 25.1262 19.813C25.1308 19.8176 25.1308 19.8176 25.1354 19.8222L27.6588 22.3404C28.1305 22.8066 27.6633 23.771 27.6633 23.771Z" stroke="black" stroke-width="2" stroke-linecap="round" stroke-linejoin="round"/>
</svg>
